<?xml version="1.0" encoding="UTF-8"?>
<!DOCTYPE svg PUBLIC "-//W3C//DTD SVG 1.1//EN" "http://www.w3.org/Graphics/SVG/1.1/DTD/svg11.dtd">
<!-- Creator: CorelDRAW 2018 (64-Bit) -->
<svg xmlns="http://www.w3.org/2000/svg" xml:space="preserve" width="64.3472mm" height="13.4938mm" version="1.1" style="shape-rendering:geometricPrecision; text-rendering:geometricPrecision; image-rendering:optimizeQuality; fill-rule:evenodd; clip-rule:evenodd"
viewBox="0 0 5725.83 1200.72"
 xmlns:xlink="http://www.w3.org/1999/xlink">
 <defs>
  <style type="text/css">
   <![CDATA[
    .fil0 {fill:#FEFEFE}
    .fil2 {fill:#2B2A29;fill-rule:nonzero}
    .fil1 {fill:url(#id0)}
   ]]>
  </style>
  <linearGradient id="id0" gradientUnits="userSpaceOnUse" x1="931.6" y1="898.91" x2="931.6" y2="301.82">
   <stop offset="0" style="stop-opacity:1; stop-color:#C5302D"/>
   <stop offset="1" style="stop-opacity:1; stop-color:#ED2939"/>
  </linearGradient>
 </defs>
 <g id="Layer_x0020_1">
  <metadata id="CorelCorpID_0Corel-Layer"/>
  <rect class="fil0" y="0" width="5725.83" height="1200.72"/>
  <g id="_2097872965040">
   <path class="fil1" d="M484.49 301.82l894.22 0 0 201.81 -894.22 0 0 -201.81zm894.22 400.83l0 196.26 -894.22 0 0 -196.26 894.22 0z"/>
   <path class="fil2" d="M2029.46 518.01c-11.06,14.39 -26.41,25.39 -45.96,32.83 -19.67,7.39 -41.89,11.1 -66.83,11.1 -25.61,0 -48.34,-5.81 -68.05,-17.42 -19.8,-11.67 -34.99,-28.31 -45.67,-49.96 -10.77,-21.68 -16.35,-46.89 -16.7,-75.8l0 -23.96c0,-46.24 11.03,-82.37 33.18,-108.33 22.09,-26.03 52.99,-38.99 92.57,-38.99 34.05,0 61.08,8.44 81.08,25.38 20.09,16.9 32.12,41.22 36.15,72.82l-52.06 0c-5.87,-36.77 -27.26,-55.21 -64.12,-55.21 -23.8,0 -41.86,8.55 -54.28,25.67 -12.39,17.16 -18.77,42.32 -19.18,75.44l0 23.51c0,33 6.93,58.67 20.87,76.89 13.96,18.26 33.32,27.38 58.05,27.38 27.18,0 46.54,-6.16 58.02,-18.51l0 -59.8 -63.02 0 0 -40.44 115.95 0 0 117.4zm172.49 -141.14c-6.74,-1.06 -13.68,-1.65 -20.8,-1.65 -23.35,0 -39.12,8.97 -47.25,26.9l0 155.52 -51.05 0 0 -227.16 48.7 0 1.29 25.32c12.32,-19.74 29.41,-29.6 51.28,-29.6 7.23,0 13.25,1 18.05,2.94l-0.22 47.73zm169.87 158.62c-14.96,17.64 -36.28,26.45 -63.89,26.45 -24.58,0 -43.28,-7.23 -55.93,-21.64 -12.67,-14.42 -19,-35.29 -19,-62.61l0 -147.2 51.06 0 0 146.49c0,28.83 11.97,43.25 35.87,43.25 24.8,0 41.57,-8.9 50.25,-26.7l0 -163.04 51.05 0 0 227.16 -48.12 0 -1.29 -22.16zm148.66 -205l1.41 26.16c16.87,-20.29 38.87,-30.45 66.19,-30.45 47.31,0 71.4,27.1 72.27,81.31l0 150.13 -51.05 0 0 -147.27c0,-14.42 -3.07,-25.09 -9.33,-32.06 -6.22,-6.97 -16.42,-10.38 -30.54,-10.38 -20.64,0 -35.93,9.33 -46.02,27.97l0 161.74 -51.06 0 0 -227.16 48.12 0zm182.26 111.91c0,-35.06 8.12,-63.15 24.38,-84.37 16.28,-21.22 38,-31.84 65.34,-31.84 24.06,0 43.58,8.39 58.41,25.22l0 -116.43 51.06 0 0 322.65 -46.25 0 -2.48 -23.45c-15.29,18.51 -35.64,27.74 -61.18,27.74 -26.61,0 -48.12,-10.68 -64.6,-32.12 -16.42,-21.42 -24.68,-50.6 -24.68,-87.41zm51.06 4.32c0,23.09 4.45,41.09 13.35,54.06 8.87,12.96 21.52,19.44 37.92,19.44 20.88,0 36.13,-9.35 45.8,-27.99l0 -96.98c-9.38,-18.22 -24.51,-27.32 -45.37,-27.32 -16.55,0 -29.26,6.51 -38.22,19.65 -8.97,13.09 -13.48,32.76 -13.48,59.15zm400.95 -0.36c0,35.35 -7.87,63.37 -23.63,84.24 -15.78,20.87 -37.44,31.32 -65.06,31.32 -26.61,0 -47.31,-9.61 -62.15,-28.74l-2.52 24.45 -46.25 0 0 -322.65 51.06 0 0 117.24c14.71,-17.35 34.54,-26.03 59.44,-26.03 27.74,0 49.54,10.32 65.31,30.89 15.87,20.58 23.79,49.31 23.79,86.31l0 2.96zm-51.05 -4.51c0,-24.68 -4.35,-43.12 -13.03,-55.45 -8.68,-12.32 -21.29,-18.48 -37.8,-18.48 -22.16,0 -37.7,9.68 -46.67,28.96l0 93.69c9.09,19.74 24.8,29.64 47.12,29.64 15.9,0 28.23,-5.96 36.9,-17.87 8.68,-11.9 13.22,-29.9 13.48,-53.99l0 -6.51zm231.53 93.63c-14.97,17.64 -36.28,26.45 -63.89,26.45 -24.58,0 -43.28,-7.23 -55.93,-21.64 -12.67,-14.42 -19,-35.29 -19,-62.61l0 -147.2 51.06 0 0 146.49c0,28.83 11.97,43.25 35.86,43.25 24.81,0 41.57,-8.9 50.25,-26.7l0 -163.04 51.06 0 0 227.16 -48.12 0 -1.29 -22.16zm194.62 -14.42c12.67,0 23.28,-3.7 31.67,-11.09 8.42,-7.39 12.93,-16.58 13.42,-27.48l48.11 0c-0.52,14.18 -4.93,27.38 -13.19,39.67 -8.26,12.25 -19.51,21.93 -33.64,29.09 -14.13,7.09 -29.38,10.68 -45.8,10.68 -31.77,0 -57.02,-10.32 -75.6,-30.9 -18.64,-20.57 -27.96,-49.02 -27.96,-85.3l0 -5.26c0,-34.54 9.25,-62.31 27.76,-83.08 18.48,-20.8 43.67,-31.19 75.56,-31.19 27.03,0 49.13,7.88 66.12,23.64 17,15.71 25.93,36.45 26.73,62.12l-48.11 0c-0.49,-13.13 -4.94,-23.84 -13.32,-32.28 -8.32,-8.39 -18.94,-12.62 -31.77,-12.62 -16.58,0 -29.32,6.03 -38.29,18 -8.96,11.97 -13.48,30.12 -13.64,54.48l0 8.19c0,24.68 4.45,43.02 13.36,55.15 8.86,12.09 21.7,18.19 38.57,18.19zm182.18 -165.9c16.65,-19.29 37.71,-28.96 63.25,-28.96 48.38,0 72.98,27.67 73.7,82.95l0 148.5 -51.05 0 0 -146.62c0,-15.71 -3.35,-26.84 -10.16,-33.35 -6.84,-6.51 -16.81,-9.74 -29.93,-9.74 -20.48,0 -35.76,9.09 -45.8,27.32l0 162.39 -51.05 0 0 -322.65 51.05 0 0 120.17zm324.36 202.48c-2.29,-4.29 -4.23,-11.33 -5.86,-21.16 -16.29,17 -36.16,25.45 -59.67,25.45 -22.87,0 -41.44,-6.51 -55.93,-19.58 -14.42,-13.04 -21.58,-29.16 -21.58,-48.38 0,-24.26 8.97,-42.9 26.97,-55.86 17.99,-12.96 43.73,-19.42 77.21,-19.42l31.25 0 0 -14.93c0,-11.77 -3.29,-21.16 -9.81,-28.25 -6.61,-7.09 -16.64,-10.61 -30.06,-10.61 -11.61,0 -21.12,2.93 -28.61,8.74 -7.39,5.8 -11.1,13.19 -11.1,22.16l-51.05 0c0,-12.48 4.16,-24.1 12.38,-34.9 8.26,-10.84 19.51,-19.38 33.71,-25.48 14.22,-6.17 30.12,-9.23 47.63,-9.23 26.58,0 47.8,6.65 63.57,20.07 15.87,13.35 23.96,32.12 24.38,56.37l0 102.54c0,20.41 2.87,36.7 8.61,48.89l0 3.59 -52.06 0zm-56.15 -36.58c10.13,0 19.58,-2.41 28.47,-7.39 8.91,-4.87 15.64,-11.48 20.07,-19.76l0 -42.96 -27.51 0c-18.86,0 -33.06,3.28 -42.61,9.89 -9.51,6.58 -14.32,15.9 -14.32,28.03 0,9.84 3.29,17.65 9.81,23.45 6.51,5.81 15.19,8.74 26.09,8.74zm290.82 14.42c-14.97,17.64 -36.28,26.45 -63.89,26.45 -24.58,0 -43.28,-7.23 -55.93,-21.64 -12.67,-14.42 -19,-35.29 -19,-62.61l0 -147.2 51.06 0 0 146.49c0,28.83 11.97,43.25 35.86,43.25 24.81,0 41.57,-8.9 50.25,-26.7l0 -163.04 51.06 0 0 227.16 -48.12 0 -1.29 -22.16zm228.67 -39.58c0,-9.03 -3.74,-15.99 -11.19,-20.73 -7.51,-4.81 -19.93,-8.97 -37.28,-12.61 -17.41,-3.65 -31.89,-8.26 -43.54,-13.91 -25.44,-12.25 -38.18,-30.18 -38.18,-53.57 0,-19.58 8.22,-35.99 24.8,-49.18 16.48,-13.13 37.48,-19.71 63.02,-19.71 27.1,0 49.13,6.74 65.83,20.13 16.71,13.48 25.09,30.93 25.09,52.34l-51.06 0c0,-9.73 -3.64,-17.93 -10.9,-24.44 -7.32,-6.51 -16.93,-9.74 -28.96,-9.74 -11.26,0 -20.35,2.58 -27.48,7.74 -6.99,5.22 -10.61,12.13 -10.61,20.8 0,7.88 3.32,13.97 9.9,18.29 6.61,4.36 19.86,8.74 39.95,13.1 20,4.45 35.71,9.67 47.09,15.77 11.48,6.1 19.93,13.42 25.45,21.96 5.54,8.52 8.32,18.94 8.32,31.13 0,20.41 -8.52,36.99 -25.45,49.67 -16.93,12.71 -39.15,19 -66.6,19 -18.58,0 -35.22,-3.35 -49.77,-10.1 -14.55,-6.74 -25.89,-16 -34.05,-27.74 -8.1,-11.77 -12.2,-24.48 -12.2,-38.02l49.61 0c0.74,12.06 5.26,21.32 13.64,27.83 8.38,6.51 19.58,9.73 33.41,9.73 13.48,0 23.64,-2.58 30.67,-7.67 7.03,-5.1 10.48,-11.75 10.48,-20.07zm149.2 20.87l121.04 0 0 40.87 -184.48 0 0 -33.48 115.36 -152.36 -113.23 0 0 -41.31 177.9 0 0 32.48 -116.59 153.81zm299.65 18.71c-14.96,17.64 -36.28,26.45 -63.89,26.45 -24.58,0 -43.28,-7.23 -55.93,-21.64 -12.67,-14.42 -19,-35.29 -19,-62.61l0 -147.2 51.06 0 0 146.49c0,28.83 11.97,43.25 35.87,43.25 24.8,0 41.57,-8.9 50.25,-26.7l0 -163.04 51.05 0 0 227.16 -48.12 0 -1.29 -22.16zm92.44 -93.09c0,-35.34 8.22,-63.5 24.87,-84.6 16.58,-21.09 38.57,-31.61 66.05,-31.61 25.87,0 46.32,9.03 61.15,27.1l2.29 -22.81 45.96 0 0 220.29c0,29.8 -9.23,53.35 -27.8,70.53 -18.58,17.23 -43.61,25.84 -75.08,25.84 -16.64,0 -33,-3.45 -48.83,-10.42 -15.9,-6.93 -27.96,-16 -36.28,-27.16l24.16 -30.7c15.71,18.57 35.09,27.83 58.02,27.83 16.93,0 30.32,-4.62 40.09,-13.71 9.81,-9.19 14.77,-22.58 14.77,-40.38l0 -15.25c-14.77,16.42 -34.35,24.58 -58.89,24.58 -26.58,0 -48.32,-10.62 -65.15,-31.74 -16.92,-21.15 -25.32,-50.41 -25.32,-87.79zm50.83 4.32c0,22.8 4.68,40.74 13.91,53.83 9.32,13.13 22.22,19.67 38.8,19.67 20.57,0 35.86,-8.84 45.83,-26.48l0 -100.01c-9.67,-17.23 -24.84,-25.81 -45.41,-25.81 -16.84,0 -29.9,6.65 -39.21,19.93 -9.23,13.32 -13.91,32.9 -13.91,58.86z"/>
   <path class="fil2" d="M2005.89 851.56c0,25.38 -4.42,47.77 -13.22,67.08 -8.77,19.22 -21.32,34.03 -37.68,44.44 -16.32,10.39 -35.18,15.58 -56.57,15.58 -32.28,0 -58.41,-11.55 -78.24,-34.7 -19.91,-23.13 -29.8,-54.32 -29.8,-93.59l0 -28.51c0,-25.23 4.45,-47.51 13.35,-66.96 8.93,-19.44 21.58,-34.41 37.9,-44.83 16.36,-10.45 35.12,-15.71 56.41,-15.71 21.26,0 40.06,5.13 56.32,15.35 16.25,10.32 28.77,24.84 37.67,43.58 8.87,18.74 13.48,40.44 13.87,65.14l0 33.13zm-23.36 -29.96c0,-33.32 -7.51,-59.44 -22.6,-78.31 -15.03,-18.83 -35.71,-28.31 -61.9,-28.31 -25.67,0 -46.15,9.49 -61.47,28.39 -15.23,18.99 -22.87,45.44 -22.87,79.34l0 28.93c0,32.8 7.64,58.83 22.81,78.02 15.19,19.18 35.86,28.79 61.92,28.79 26.45,0 47.12,-9.48 61.89,-28.41 14.83,-19 22.22,-45.35 22.22,-79.18l0 -29.25zm-141.36 -174.1c0,-4.26 1.42,-7.9 4.23,-10.87 2.78,-3 6.55,-4.48 11.38,-4.48 4.81,0 8.65,1.49 11.49,4.48 2.87,2.97 4.29,6.61 4.29,10.87 0,4.16 -1.42,7.71 -4.29,10.64 -2.84,2.9 -6.67,4.32 -11.49,4.32 -4.83,0 -8.6,-1.41 -11.38,-4.32 -2.8,-2.94 -4.23,-6.49 -4.23,-10.64zm83.24 0.06c0,-4.26 1.35,-7.84 4.13,-10.8 2.8,-2.94 6.61,-4.42 11.42,-4.42 4.81,0 8.61,1.49 11.48,4.42 2.84,2.96 4.26,6.54 4.26,10.8 0,4.16 -1.42,7.71 -4.26,10.58 -2.87,2.9 -6.67,4.32 -11.48,4.32 -4.81,0 -8.61,-1.41 -11.42,-4.32 -2.78,-2.87 -4.13,-6.42 -4.13,-10.58zm257.95 275.07c0,-11.26 -4.48,-20.35 -13.54,-27.16 -9.09,-6.87 -22.71,-12.25 -40.9,-16.06 -18.29,-3.9 -32.42,-8.28 -42.48,-13.29 -10.03,-5 -17.54,-11.16 -22.41,-18.35 -4.87,-7.19 -7.32,-15.94 -7.32,-26.26 0,-16.19 6.81,-29.54 20.36,-40.11 13.54,-10.55 30.86,-15.87 52.06,-15.87 22.86,0 41.28,5.65 55.14,16.97 13.81,11.35 20.74,26.13 20.74,44.34l-22.74 0c0,-11.99 -5.06,-21.96 -15.13,-29.96 -10.03,-7.96 -22.74,-11.9 -38.02,-11.9 -15,0 -26.97,3.29 -36.06,9.97 -9,6.67 -13.54,15.29 -13.54,25.93 0,10.32 3.77,18.29 11.29,23.93 7.51,5.61 21.25,10.74 41.22,15.48 19.96,4.68 34.86,9.65 44.79,14.97 9.97,5.32 17.29,11.74 22.16,19.18 4.81,7.46 7.2,16.45 7.2,27.1 0,17.32 -7,31.19 -21,41.54 -14,10.39 -32.22,15.58 -54.76,15.58 -23.94,0 -43.32,-5.78 -58.22,-17.39 -14.83,-11.6 -22.28,-26.25 -22.28,-44.02l22.74 0c0.9,13.36 6.49,23.74 16.87,31.19 10.29,7.45 23.89,11.16 40.9,11.16 15.8,0 28.57,-3.51 38.38,-10.45 9.71,-7 14.58,-15.8 14.58,-26.52zm109.21 -205.7l0 52.47 42.51 0 0 18.68 -42.51 0 0 136.91c0,11.38 2.06,19.9 6.16,25.45 4.13,5.58 11,8.38 20.61,8.38 3.81,0 9.9,-0.64 18.38,-1.9l1 18.54c-5.96,2.06 -14.09,3.19 -24.32,3.19 -15.55,0 -26.89,-4.55 -33.96,-13.54 -7.13,-9.09 -10.64,-22.39 -10.64,-40l0 -137.03 -37.84 0 0 -18.68 37.84 0 0 -52.47 22.77 0zm169.35 261.73c-17.49,0 -33.25,-4.29 -47.38,-12.9 -14.12,-8.64 -25.08,-20.61 -32.92,-36.06 -7.84,-15.35 -11.77,-32.6 -11.77,-51.7l0 -8.2c0,-19.76 3.81,-37.51 11.45,-53.41 7.64,-15.8 18.35,-28.25 32.03,-37.25 13.68,-9.09 28.45,-13.61 44.41,-13.61 24.92,0 44.7,8.49 59.37,25.55 14.65,17.03 21.9,40.32 21.9,69.86l0 12.71 -146.55 0 0 4.35c0,23.31 6.67,42.77 20.03,58.31 13.35,15.51 30.12,23.29 50.41,23.29 12.12,0 22.9,-2.22 32.15,-6.67 9.35,-4.48 17.77,-11.61 25.35,-21.38l14.26 10.8c-16.7,24.19 -40.96,36.31 -72.73,36.31zm-4.19 -193.67c-17.07,0 -31.45,6.29 -43.19,18.77 -11.74,12.52 -18.86,29.32 -21.38,50.44l123.27 0 0 -2.45c-0.64,-19.71 -6.28,-35.81 -16.9,-48.18 -10.64,-12.36 -24.58,-18.58 -41.8,-18.58zm220.31 3.68c-4.81,-0.9 -9.94,-1.35 -15.39,-1.35 -14.19,0 -26.19,3.97 -35.96,11.87 -9.81,7.9 -16.81,19.38 -21,34.47l0 141.11 -22.58 0 0 -205.36 22.18 0 0.39 32.54c12.07,-24.28 31.35,-36.41 57.93,-36.41 6.35,0 11.35,0.85 14.99,2.46l-0.58 20.67zm130.88 0c-4.81,-0.9 -9.93,-1.35 -15.39,-1.35 -14.19,0 -26.19,3.97 -35.96,11.87 -9.81,7.9 -16.81,19.38 -21,34.47l0 141.11 -22.58 0 0 -205.36 22.19 0 0.38 32.54c12.07,-24.28 31.35,-36.41 57.93,-36.41 6.35,0 11.35,0.85 14.99,2.46l-0.58 20.67zm112.05 190c-17.49,0 -33.25,-4.29 -47.38,-12.9 -14.12,-8.64 -25.09,-20.61 -32.92,-36.06 -7.84,-15.35 -11.77,-32.6 -11.77,-51.7l0 -8.2c0,-19.76 3.8,-37.51 11.44,-53.41 7.64,-15.8 18.36,-28.25 32.03,-37.25 13.68,-9.09 28.45,-13.61 44.41,-13.61 24.93,0 44.71,8.49 59.38,25.55 14.65,17.03 21.9,40.32 21.9,69.86l0 12.71 -146.56 0 0 4.35c0,23.31 6.68,42.77 20.03,58.31 13.36,15.51 30.13,23.29 50.41,23.29 12.13,0 22.9,-2.22 32.16,-6.67 9.35,-4.48 17.77,-11.61 25.35,-21.38l14.26 10.8c-16.71,24.19 -40.96,36.31 -72.73,36.31zm-4.2 -193.67c-17.06,0 -31.44,6.29 -43.18,18.77 -11.74,12.52 -18.86,29.32 -21.38,50.44l123.27 0 0 -2.45c-0.64,-19.71 -6.29,-35.81 -16.9,-48.18 -10.64,-12.36 -24.58,-18.58 -41.8,-18.58zm150.88 189.77l-22.74 0 0 -205.36 22.74 0 0 205.36zm-26.77 -264.76c0,-4.23 1.41,-7.88 4.22,-10.84 2.78,-2.94 6.55,-4.42 11.35,-4.42 4.84,0 8.68,1.49 11.51,4.42 2.87,2.96 4.29,6.61 4.29,10.84 0,4.25 -1.41,7.9 -4.29,10.74 -2.84,2.94 -6.67,4.35 -11.51,4.35 -4.81,0 -8.58,-1.41 -11.35,-4.35 -2.8,-2.84 -4.22,-6.49 -4.22,-10.74zm164.45 249.6c15.87,0 29.09,-4.48 39.8,-13.42 10.67,-8.96 16.51,-20.55 17.35,-34.73l21.86 0c-0.68,12.48 -4.55,23.89 -11.74,34.28 -7.26,10.3 -16.87,18.32 -28.8,24.16 -11.97,5.84 -24.8,8.77 -38.48,8.77 -26.96,0 -48.28,-9.41 -64.05,-28.15 -15.74,-18.7 -23.64,-43.93 -23.64,-75.56l0 -6.87c0,-20.23 3.55,-38.19 10.61,-53.74 7.07,-15.55 17.26,-27.6 30.49,-36.09 13.22,-8.52 28.7,-12.71 46.47,-12.71 22.49,0 41.09,6.74 55.67,20.16 14.65,13.41 22.49,31.02 23.48,52.95l-21.86 0c-0.97,-16.1 -6.81,-29.06 -17.35,-38.89 -10.58,-9.87 -23.87,-14.77 -39.94,-14.77 -20.54,0 -36.5,7.39 -47.76,22.22 -11.35,14.83 -17,35.58 -17,62.34l0 6.61c0,26.26 5.65,46.67 17,61.38 11.26,14.74 27.28,22.06 47.89,22.06zm147.07 -155.49c7.45,-12.32 17.03,-21.8 28.71,-28.55 11.6,-6.67 24.38,-10.03 38.12,-10.03 22.02,0 38.41,6.23 49.18,18.62 10.78,12.35 16.22,30.96 16.36,55.79l0 134.82 -22.65 0 0 -134.94c-0.06,-18.36 -4,-32.03 -11.67,-40.97 -7.64,-9.02 -19.9,-13.48 -36.73,-13.48 -14,0 -26.45,4.39 -37.28,13.16 -10.8,8.81 -18.84,20.67 -24.03,35.58l0 140.66 -22.58 0 0 -291.7 22.58 0 0 121.04z"/>
  </g>
 </g>
</svg>
