<?xml version="1.0" encoding="UTF-8"?>
<!DOCTYPE svg PUBLIC "-//W3C//DTD SVG 1.1//EN" "http://www.w3.org/Graphics/SVG/1.1/DTD/svg11.dtd">
<!-- Creator: CorelDRAW X8 -->
<svg xmlns="http://www.w3.org/2000/svg" xml:space="preserve" width="64.5532mm" height="7.6904mm" version="1.1" style="shape-rendering:geometricPrecision; text-rendering:geometricPrecision; image-rendering:optimizeQuality; fill-rule:evenodd; clip-rule:evenodd"
viewBox="0 0 6455 769"
 xmlns:xlink="http://www.w3.org/1999/xlink">
 <defs>
  <style type="text/css">
   <![CDATA[
    .fil0 {fill:#DAA389}
    .fil3 {fill:#777777;fill-rule:nonzero}
    .fil2 {fill:#DAA389;fill-rule:nonzero}
    .fil1 {fill:white;fill-rule:nonzero}
   ]]>
  </style>
 </defs>
 <g id="Ebene_x0020_1">
  <metadata id="CorelCorpID_0Corel-Layer"/>
  <path class="fil0" d="M30 186l350 0 0 576 -380 0 0 -545c0,-17 14,-31 30,-31z"/>
  <path class="fil0" d="M425 93l315 0c17,0 30,14 30,30l0 639 -375 0 0 -639c0,-16 14,-30 30,-30z"/>
  <rect class="fil0" x="786" y="186" width="368" height="575"/>
  <path class="fil0" d="M1200 0l670 0c17,0 30,14 30,30l0 732 -730 0 0 -732c0,-16 13,-30 30,-30z"/>
  <path class="fil0" d="M1915 186l354 0c16,0 30,14 30,30l0 546 -384 0 0 -576z"/>
 </g>
 <g id="__x0023_Layer_x0020_1">
  <metadata id="CorelCorpID_1Corel-Layer"/>
  <path class="fil1" d="M109 335c8,-9 16,-16 25,-24 8,-7 18,-13 27,-18 10,-5 20,-9 31,-11 11,-3 23,-4 36,-4 19,0 37,3 52,9 14,7 27,16 37,28 10,12 18,26 23,43 5,16 7,35 7,55l0 228 -63 0 0 -228c0,-27 -6,-48 -18,-63 -13,-15 -31,-22 -56,-22 -19,0 -36,4 -53,13 -16,9 -30,21 -44,36l0 264 -63 0 0 -358 37 0c9,0 15,5 17,13l5 39z"/>
  <path class="fil1" d="M733 591c-7,9 -17,17 -27,24 -11,7 -23,13 -35,17 -13,5 -25,8 -39,10 -13,2 -26,4 -39,4 -24,0 -47,-5 -68,-13 -21,-8 -39,-21 -54,-37 -15,-16 -27,-36 -35,-59 -9,-24 -13,-51 -13,-82 0,-25 4,-48 11,-70 8,-22 19,-40 33,-56 15,-16 32,-29 53,-38 21,-9 44,-13 70,-13 21,0 41,3 59,10 18,8 34,18 48,31 13,14 23,31 31,51 7,19 11,42 11,67 0,10 -1,17 -3,20 -2,4 -6,5 -12,5l-239 0c1,23 4,42 9,59 6,17 14,31 23,42 10,11 22,19 36,25 13,5 29,8 46,8 15,0 29,-2 40,-5 12,-4 22,-8 30,-12 8,-4 15,-8 20,-12 6,-4 11,-5 15,-5 5,0 9,2 12,6l17 23zm-50 -168l0 0c0,-15 -2,-28 -7,-40 -4,-12 -10,-23 -18,-31 -7,-9 -17,-16 -28,-21 -12,-5 -24,-7 -39,-7 -30,0 -54,9 -71,26 -18,18 -29,42 -33,73l196 0z"/>
  <path class="fil1" d="M1110 283l0 358 -38 0c-9,0 -14,-5 -17,-13l-4 -39c-16,17 -33,31 -53,42 -19,10 -41,15 -66,15 -20,0 -37,-3 -52,-9 -15,-7 -27,-16 -37,-28 -10,-12 -18,-26 -23,-42 -5,-17 -8,-36 -8,-56l0 -228 63 0 0 228c0,27 6,48 19,63 12,15 31,22 56,22 19,0 36,-4 52,-13 16,-9 31,-21 45,-37l0 -263 63 0z"/>
  <path class="fil1" d="M1272 335c15,-18 32,-31 51,-42 19,-10 41,-15 66,-15 21,0 40,4 56,12 17,8 32,19 43,34 12,16 21,34 27,56 7,21 10,46 10,73 0,29 -4,55 -11,79 -7,23 -17,44 -30,60 -14,17 -30,30 -49,40 -19,9 -40,14 -64,14 -24,0 -44,-5 -60,-14 -16,-8 -30,-21 -42,-37l-3 32c-2,9 -7,14 -16,14l-41 0 0 -520 63 0 0 214zm0 220l0 0c12,15 25,26 38,32 14,7 29,10 46,10 33,0 59,-12 77,-36 18,-23 27,-59 27,-106 0,-44 -8,-76 -24,-96 -16,-21 -39,-31 -68,-31 -20,0 -38,4 -53,14 -16,9 -30,23 -43,40l0 173z"/>
  <path class="fil1" d="M1595 334c20,-19 41,-34 64,-43 23,-9 48,-14 76,-14 20,0 38,3 53,10 16,6 29,16 39,27 11,12 19,26 24,43 6,17 8,35 8,55l0 229 -27 0c-7,0 -11,-1 -15,-3 -3,-2 -5,-6 -7,-12l-7 -34c-10,9 -19,16 -28,23 -9,7 -18,12 -28,17 -10,5 -21,8 -32,11 -11,2 -23,3 -37,3 -14,0 -27,-2 -39,-6 -12,-3 -23,-9 -32,-17 -9,-8 -16,-18 -22,-29 -5,-12 -7,-26 -7,-43 0,-14 3,-27 11,-40 8,-13 21,-25 38,-35 17,-10 40,-18 68,-25 28,-6 62,-10 103,-11l0 -28c0,-28 -6,-49 -18,-63 -12,-14 -29,-21 -52,-21 -16,0 -29,2 -39,6 -11,3 -20,8 -28,13 -7,4 -14,9 -19,13 -6,4 -11,5 -17,5 -4,0 -8,-1 -11,-3 -3,-2 -5,-5 -8,-8l-11 -20zm203 146l0 0c-29,1 -54,3 -74,7 -20,3 -37,8 -50,14 -12,6 -22,13 -27,21 -6,8 -9,17 -9,27 0,9 1,17 4,24 4,7 8,12 13,17 5,4 12,7 19,9 7,2 15,3 23,3 11,0 21,-1 30,-3 9,-2 18,-6 26,-10 8,-4 16,-9 23,-15 8,-6 15,-13 22,-20l0 -74z"/>
  <path class="fil1" d="M2249 283l0 358 -38 0c-8,0 -14,-5 -16,-13l-5 -39c-16,17 -33,31 -53,42 -19,10 -41,15 -66,15 -19,0 -37,-3 -52,-9 -15,-7 -27,-16 -37,-28 -10,-12 -18,-26 -23,-42 -5,-17 -8,-36 -8,-56l0 -228 63 0 0 228c0,27 6,48 19,63 12,15 31,22 56,22 19,0 36,-4 52,-13 17,-9 31,-21 45,-37l0 -263 63 0z"/>
  <path class="fil2" d="M2408 339c15,-19 33,-34 53,-45 19,-11 42,-17 67,-17 21,0 40,4 56,12 17,8 31,19 43,35 12,15 21,34 27,57 7,23 10,49 10,79 0,26 -4,51 -11,73 -7,23 -17,43 -30,59 -14,17 -30,30 -49,39 -19,10 -41,15 -65,15 -22,0 -40,-4 -56,-12 -16,-7 -30,-17 -41,-30l0 158 -64 0 0 -479 38 0c9,0 15,5 17,13l5 43zm4 216l0 0c11,15 24,26 37,32 14,7 29,10 46,10 34,0 59,-12 77,-36 18,-23 27,-57 27,-101 0,-24 -2,-44 -6,-60 -4,-17 -10,-31 -18,-41 -8,-11 -17,-19 -29,-24 -11,-5 -24,-7 -38,-7 -21,0 -39,4 -54,14 -15,9 -30,23 -42,40l0 173z"/>
  <path class="fil2" d="M2803 355c12,-25 26,-44 42,-57 17,-14 37,-21 60,-21 8,0 15,1 22,2 7,2 13,5 19,8l-5 47c-1,6 -5,9 -11,9 -3,0 -8,-1 -14,-2 -6,-2 -14,-2 -22,-2 -11,0 -21,1 -30,5 -9,3 -16,8 -23,14 -7,7 -14,15 -19,24 -6,10 -11,21 -15,33l0 226 -63 0 0 -358 36 0c7,0 11,2 14,4 2,3 4,7 5,14l4 54z"/>
  <path class="fil2" d="M3137 278c26,0 49,4 70,13 21,8 39,21 54,37 15,16 26,35 34,58 8,22 12,48 12,76 0,28 -4,53 -12,76 -8,23 -19,42 -34,58 -15,16 -33,28 -54,37 -21,8 -44,13 -70,13 -27,0 -50,-5 -71,-13 -21,-9 -39,-21 -54,-37 -15,-16 -26,-35 -34,-58 -8,-23 -12,-48 -12,-76 0,-28 4,-54 12,-76 8,-23 19,-42 34,-58 15,-16 33,-29 54,-37 21,-9 44,-13 71,-13zm0 319l0 0c35,0 61,-12 79,-36 17,-24 26,-57 26,-99 0,-42 -9,-76 -26,-99 -18,-24 -44,-36 -79,-36 -18,0 -34,3 -47,9 -13,6 -24,15 -33,27 -9,11 -15,25 -20,42 -4,17 -6,36 -6,57 0,42 8,75 26,99 17,24 44,36 80,36z"/>
  <path class="fil2" d="M3453 283l0 384c0,14 -2,28 -6,40 -4,13 -10,23 -18,32 -8,10 -19,17 -32,22 -12,5 -28,8 -46,8 -7,0 -14,-1 -21,-2 -6,-1 -12,-3 -19,-5l3 -34c0,-2 1,-4 2,-5 1,-1 3,-1 5,-2 1,0 4,0 7,0 3,0 6,0 11,0 18,0 31,-4 39,-12 8,-9 12,-23 12,-42l0 -384 63 0zm13 -112l0 0c0,6 -2,12 -4,17 -3,5 -6,10 -10,14 -4,4 -9,8 -14,10 -6,2 -11,4 -18,4 -6,0 -11,-2 -17,-4 -5,-2 -10,-6 -14,-10 -4,-4 -7,-9 -9,-14 -2,-5 -4,-11 -4,-17 0,-6 2,-12 4,-17 2,-6 5,-11 9,-15 4,-4 9,-7 14,-10 6,-2 11,-3 17,-3 7,0 12,1 18,3 5,3 10,6 14,10 4,4 7,9 10,15 2,5 4,11 4,17z"/>
  <path class="fil2" d="M3846 591c-8,9 -18,17 -28,24 -11,7 -23,13 -35,17 -12,5 -25,8 -38,10 -14,2 -27,4 -40,4 -24,0 -47,-5 -68,-13 -21,-8 -39,-21 -54,-37 -15,-16 -27,-36 -35,-59 -9,-24 -13,-51 -13,-82 0,-25 4,-48 12,-70 7,-22 18,-40 33,-56 14,-16 31,-29 52,-38 21,-9 44,-13 70,-13 21,0 41,3 59,10 19,8 34,18 48,31 13,14 23,31 31,51 7,19 11,42 11,67 0,10 -1,17 -3,20 -2,4 -6,5 -12,5l-239 0c1,23 4,42 10,59 5,17 13,31 23,42 10,11 21,19 35,25 14,5 29,8 46,8 16,0 29,-2 41,-5 11,-4 21,-8 29,-12 8,-4 15,-8 21,-12 5,-4 10,-5 14,-5 5,0 9,2 12,6l18 23zm-51 -168l0 0c0,-15 -2,-28 -6,-40 -5,-12 -11,-23 -18,-31 -8,-9 -18,-16 -29,-21 -11,-5 -24,-7 -39,-7 -30,0 -54,9 -71,26 -18,18 -28,42 -33,73l196 0z"/>
  <path class="fil2" d="M3991 121l0 306 16 0c5,0 9,-1 12,-2 3,-1 7,-4 10,-8l113 -121c3,-4 7,-7 11,-9 3,-3 8,-4 14,-4l57 0 -132 140c-6,8 -13,15 -20,19 4,3 8,6 11,10 4,3 7,8 10,12l140 177 -56 0c-6,0 -10,-1 -14,-3 -4,-2 -7,-5 -10,-10l-118 -146c-3,-5 -7,-8 -10,-10 -3,-1 -9,-2 -16,-2l-18 0 0 171 -63 0 0 -520 63 0z"/>
  <path class="fil2" d="M4396 646c-28,0 -50,-8 -65,-23 -15,-16 -23,-39 -23,-68l0 -219 -43 0c-3,0 -7,-1 -9,-4 -3,-2 -4,-5 -4,-10l0 -25 58 -7 15 -111c1,-3 2,-6 5,-8 2,-3 5,-4 9,-4l32 0 0 123 104 0 0 46 -104 0 0 214c0,15 4,27 11,34 7,7 17,11 28,11 7,0 13,-1 17,-3 5,-2 9,-4 13,-6 4,-2 6,-4 9,-6 2,-1 5,-2 6,-2 4,0 7,2 9,6l19 30c-11,10 -24,18 -39,24 -16,5 -32,8 -48,8z"/>
  <path class="fil2" d="M4828 591c-8,9 -17,17 -28,24 -11,7 -23,13 -35,17 -12,5 -25,8 -38,10 -13,2 -26,4 -39,4 -25,0 -48,-5 -69,-13 -20,-8 -38,-21 -54,-37 -15,-16 -27,-36 -35,-59 -9,-24 -13,-51 -13,-82 0,-25 4,-48 12,-70 7,-22 18,-40 33,-56 14,-16 32,-29 52,-38 21,-9 44,-13 70,-13 21,0 41,3 60,10 18,8 33,18 47,31 13,14 23,31 31,51 8,19 11,42 11,67 0,10 -1,17 -3,20 -2,4 -6,5 -12,5l-239 0c1,23 4,42 10,59 5,17 13,31 23,42 10,11 21,19 35,25 14,5 29,8 46,8 16,0 29,-2 41,-5 11,-4 21,-8 29,-12 8,-4 15,-8 21,-12 5,-4 10,-5 14,-5 5,0 9,2 12,6l18 23zm-51 -168l0 0c0,-15 -2,-28 -6,-40 -4,-12 -10,-23 -18,-31 -8,-9 -18,-16 -29,-21 -11,-5 -24,-7 -39,-7 -30,0 -53,9 -71,26 -17,18 -28,42 -33,73l196 0z"/>
  <path class="fil3" d="M4900 602c0,-6 1,-12 3,-17 2,-6 5,-11 9,-15 4,-4 9,-7 14,-9 5,-2 11,-4 17,-4 6,0 12,2 18,4 5,2 10,5 14,9 4,4 7,9 9,15 3,5 4,11 4,17 0,6 -1,12 -4,17 -2,6 -5,10 -9,14 -4,4 -9,7 -14,10 -6,2 -12,3 -18,3 -6,0 -12,-1 -17,-3 -5,-3 -10,-6 -14,-10 -4,-4 -7,-8 -9,-14 -2,-5 -3,-11 -3,-17z"/>
  <path class="fil3" d="M5554 283l-115 358 -50 0c-6,0 -10,-4 -13,-12l-79 -243c-2,-5 -3,-11 -4,-16 -2,-6 -3,-11 -4,-17 -1,6 -2,11 -3,17 -2,5 -3,11 -5,17l-80 242c-3,8 -7,12 -15,12l-47 0 -116 -358 50 0c5,0 9,2 12,4 4,3 6,6 7,9l69 230c4,17 7,33 9,48 2,-7 4,-15 7,-23 2,-8 4,-16 7,-25l75 -231c2,-4 4,-7 7,-9 3,-2 6,-3 10,-3l28 0c5,0 8,1 12,3 3,2 5,5 6,9l74 231c2,9 5,17 7,25 2,8 4,16 6,23 1,-7 2,-15 4,-23 2,-8 4,-16 6,-25l70 -230c1,-3 3,-7 6,-9 4,-2 8,-4 12,-4l47 0z"/>
  <path class="fil3" d="M5695 171c0,6 -1,12 -3,17 -3,5 -6,10 -10,14 -4,4 -9,8 -15,10 -5,2 -11,4 -17,4 -6,0 -12,-2 -17,-4 -5,-2 -10,-6 -14,-10 -4,-4 -7,-9 -10,-14 -2,-5 -3,-11 -3,-17 0,-6 1,-12 3,-17 3,-6 6,-11 10,-15 4,-4 9,-7 14,-10 5,-2 11,-3 17,-3 6,0 12,1 17,3 6,3 11,6 15,10 4,4 7,9 10,15 2,5 3,11 3,17zm-13 112l0 0 0 358 -63 0 0 -358 63 0z"/>
  <path class="fil3" d="M6075 591c-8,9 -17,17 -28,24 -11,7 -22,13 -35,17 -12,5 -25,8 -38,10 -13,2 -26,4 -39,4 -25,0 -47,-5 -68,-13 -21,-8 -39,-21 -54,-37 -15,-16 -27,-36 -36,-59 -8,-24 -12,-51 -12,-82 0,-25 3,-48 11,-70 8,-22 19,-40 33,-56 14,-16 32,-29 53,-38 20,-9 44,-13 69,-13 22,0 42,3 60,10 18,8 34,18 47,31 13,14 24,31 31,51 8,19 12,42 12,67 0,10 -1,17 -3,20 -3,4 -7,5 -12,5l-239 0c0,23 4,42 9,59 6,17 13,31 23,42 10,11 22,19 35,25 14,5 29,8 46,8 16,0 30,-2 41,-5 11,-4 21,-8 29,-12 9,-4 16,-8 21,-12 6,-4 10,-5 14,-5 6,0 10,2 12,6l18 23zm-51 -168l0 0c0,-15 -2,-28 -6,-40 -4,-12 -10,-23 -18,-31 -8,-9 -17,-16 -29,-21 -11,-5 -24,-7 -38,-7 -30,0 -54,9 -72,26 -17,18 -28,42 -32,73l195 0z"/>
  <path class="fil3" d="M6217 335c8,-9 16,-16 25,-24 8,-7 17,-13 27,-18 10,-5 20,-9 31,-11 11,-3 23,-4 36,-4 19,0 37,3 51,9 15,7 28,16 38,28 10,12 17,26 23,43 5,16 7,35 7,55l0 228 -63 0 0 -228c0,-27 -6,-48 -18,-63 -13,-15 -31,-22 -57,-22 -18,0 -36,4 -52,13 -16,9 -31,21 -44,36l0 264 -63 0 0 -358 37 0c9,0 15,5 17,13l5 39z"/>
  <polygon class="fil2" points="1209,121 1209,93 1227,93 1227,121 "/>
 </g>
</svg>
