<?xml version="1.0" encoding="UTF-8" standalone="no"?>
<!-- Creator: CorelDRAW 2018 (64-Bit) -->

<svg
   xml:space="preserve"
   width="129.67758mm"
   height="46.3423mm"
   version="1.1"
   style="clip-rule:evenodd;fill-rule:evenodd;image-rendering:optimizeQuality;shape-rendering:geometricPrecision;text-rendering:geometricPrecision"
   viewBox="0 0 2643.5786 944.7168"
   id="svg14"
   sodipodi:docname="uid-check-at.svg"
   inkscape:version="1.4.2 (ebf0e94, 2025-05-08)"
   inkscape:export-filename="uid-check-at.svg"
   inkscape:export-xdpi="96"
   inkscape:export-ydpi="96"
   xmlns:inkscape="http://www.inkscape.org/namespaces/inkscape"
   xmlns:sodipodi="http://sodipodi.sourceforge.net/DTD/sodipodi-0.dtd"
   xmlns:xlink="http://www.w3.org/1999/xlink"
   xmlns="http://www.w3.org/2000/svg"
   xmlns:svg="http://www.w3.org/2000/svg"><sodipodi:namedview
   id="namedview14"
   pagecolor="#ffffff"
   bordercolor="#000000"
   borderopacity="0.25"
   inkscape:showpageshadow="2"
   inkscape:pageopacity="0.0"
   inkscape:pagecheckerboard="0"
   inkscape:deskcolor="#d1d1d1"
   inkscape:document-units="mm"
   inkscape:zoom="8.3232104"
   inkscape:cx="179.3779"
   inkscape:cy="40.909695"
   inkscape:window-width="1910"
   inkscape:window-height="1022"
   inkscape:window-x="1924"
   inkscape:window-y="53"
   inkscape:window-maximized="1"
   inkscape:current-layer="Layer_x0020_1"
   inkscape:export-bgcolor="#ffffffff"><inkscape:page
     x="0"
     y="0"
     width="2643.5786"
     height="944.71674"
     id="page2"
     margin="0"
     bleed="0" /></sodipodi:namedview>
 <defs
   id="defs3"><linearGradient
     id="linearGradient24"
     inkscape:collect="always"><stop
       style="stop-color:#000000;stop-opacity:1;"
       offset="0"
       id="stop25" /><stop
       style="stop-color:#000000;stop-opacity:0;"
       offset="1"
       id="stop26" /></linearGradient><linearGradient
     id="linearGradient19"
     inkscape:swatch="gradient"><stop
       style="stop-color:#000000;stop-opacity:1;"
       offset="0"
       id="stop19" /><stop
       style="stop-color:#000000;stop-opacity:0;"
       offset="1"
       id="stop20" /></linearGradient><linearGradient
     id="linearGradient15"
     inkscape:collect="always"><stop
       style="stop-color:#000000;stop-opacity:0;"
       offset="0"
       id="stop15" /><stop
       style="stop-color:#000000;stop-opacity:0;"
       offset="1"
       id="stop16" /></linearGradient><style
     type="text/css"
     id="style1">
   <![CDATA[
    .fil1 {fill:#FFD324}
    .fil0 {fill:url(#id0)}
   ]]>
  </style><linearGradient
     id="id0"
     gradientUnits="userSpaceOnUse"
     x1="160.14999"
     y1="4.8800001"
     x2="420.48999"
     y2="382.39999">
   <stop
   offset="0"
   style="stop-opacity:1; stop-color:#003FBD"
   id="stop1" />
   <stop
   offset="0.501961"
   style="stop-opacity:1; stop-color:#0036A3"
   id="stop2" />
   <stop
   offset="1"
   style="stop-opacity:1; stop-color:#002B82"
   id="stop3" />
  </linearGradient><radialGradient
     inkscape:collect="always"
     xlink:href="#linearGradient24"
     id="radialGradient26"
     cx="990.2691"
     cy="2402.1812"
     fx="990.2691"
     fy="2402.1812"
     r="165.09097"
     gradientTransform="matrix(1,0,0,0.15750212,0,34.106766)"
     gradientUnits="userSpaceOnUse" /><radialGradient
     inkscape:collect="always"
     xlink:href="#linearGradient15"
     id="radialGradient27"
     cx="990.2691"
     cy="2483.3613"
     fx="990.2691"
     fy="2483.3613"
     r="164.07169"
     gradientTransform="matrix(1,0,0,0.15226812,0,34.318654)"
     gradientUnits="userSpaceOnUse" /></defs>
 <g
   id="Layer_x0020_1"
   inkscape:label="Layer 1"
   inkscape:groupmode="layer"
   transform="translate(269.68686,269.68689)">
  <metadata
   id="CorelCorpID_0Corel-Layer" />
  <rect
   class="fil0"
   width="580.64001"
   height="387.28"
   id="rect3"
   x="0"
   y="0"
   style="fill:url(#id0)" />
  <circle
   class="fil1"
   cx="290.32001"
   cy="56.400002"
   id="circle3"
   r="14.83" />
  <circle
   class="fil1"
   cx="359.45001"
   cy="74.919998"
   id="circle4"
   r="14.83" />
  <circle
   class="fil1"
   cx="410.04999"
   cy="125.53"
   id="circle5"
   r="14.83" />
  <circle
   class="fil1"
   cx="428.57001"
   cy="194.64999"
   id="circle6"
   r="14.83" />
  <circle
   class="fil1"
   cx="410.04999"
   cy="263.78"
   id="circle7"
   r="14.83" />
  <circle
   class="fil1"
   cx="359.45001"
   cy="314.38"
   id="circle8"
   r="14.83" />
  <circle
   class="fil1"
   cx="290.32001"
   cy="332.89999"
   id="circle9"
   r="14.83" />
  <circle
   class="fil1"
   cx="221.19"
   cy="74.919998"
   id="circle10"
   r="14.83" />
  <circle
   class="fil1"
   cx="170.59"
   cy="125.53"
   id="circle11"
   r="14.83" />
  <circle
   class="fil1"
   cx="152.07001"
   cy="194.64999"
   id="circle12"
   r="14.83" />
  <circle
   class="fil1"
   cx="170.59"
   cy="263.78"
   id="circle13"
   r="14.83" />
  <circle
   class="fil1"
   cx="221.19"
   cy="314.38"
   id="circle14"
   r="14.83" />
 <text
   xml:space="preserve"
   style="font-size:64.7248px;text-align:start;writing-mode:lr-tb;direction:ltr;text-anchor:start;white-space:pre;inline-size:1304.28;fill:url(#radialGradient27);stroke:url(#radialGradient26);stroke-width:2.03858;stroke-dasharray:none"
   x="645.44354"
   y="64.802116"
   id="text14"><tspan
     x="645.44354"
     y="64.802116"
     id="tspan4"><tspan
       style="font-family:Roboto;-inkscape-font-specification:'Roboto, Normal';opacity:0.965879;fill-rule:nonzero"
       id="tspan2">UID-Check</tspan></tspan></text><g
   id="text5"
   style="font-size:64.7248px;white-space:pre;inline-size:1098.21;fill:#383838;stroke:#383838;stroke-width:2.03858"
   transform="matrix(1.4036805,0,0,1.4036805,-254.64117,47.142304)"
   aria-label="UID-Check&#10;Mehrfachabfrage"><path
     style="font-size:129.45px;font-family:Roboto;-inkscape-font-specification:'Roboto, Normal';opacity:0.965879;fill-rule:nonzero"
     d="m 708.77778,-27.228741 h 12.13594 v 62.259886 q 0,10.366113 -4.61419,17.255786 -4.61418,6.889673 -12.26235,10.366113 -7.58496,3.413233 -16.49729,3.413233 -9.35478,0 -16.93974,-3.413233 -7.52176,-3.47644 -11.94632,-10.366113 -4.36135,-6.889673 -4.36135,-17.255786 v -62.259886 h 12.07273 v 62.259886 q 0,7.205713 2.65474,11.883106 2.65473,4.677392 7.39533,6.95288 4.80381,2.275489 11.12461,2.275489 6.38401,0 11.12461,-2.275489 4.80381,-2.275488 7.45855,-6.95288 2.65473,-4.677393 2.65473,-11.883106 z m 44.37202,0 v 92.030857 h -12.19914 v -92.030857 z m 47.02676,92.030857 h -19.21523 l 0.12641,-9.923657 h 19.08882 q 9.86045,0 16.43408,-4.10852 6.57364,-4.171728 9.86045,-11.630273 3.35003,-7.521753 3.35003,-17.571826 v -5.625512 q 0,-7.9010013 -1.89624,-14.0321779 -1.89624,-6.1943846 -5.56231,-10.429321 -3.66606,-4.2981441 -8.97554,-6.5104251 -5.24626,-2.21228 -12.07272,-2.21228 h -20.73223 v -9.986865 h 20.73223 q 9.03874,0 16.49729,3.033984 7.45854,2.970777 12.83122,8.659497 5.43589,5.6255129 8.34346,13.6529297 2.90757,7.9642088 2.90757,17.9510743 v 5.499096 q 0,9.986865 -2.90757,18.014282 -2.90757,7.964209 -8.40667,13.589721 -5.43589,5.625513 -13.14726,8.659497 -7.64817,2.970776 -17.25579,2.970776 z m -12.70481,-92.030857 v 92.030857 h -12.19914 v -92.030857 z m 95.31767,48.101293 v 9.607617 h -30.84551 v -9.607617 z m 68.77032,14.664257 h 12.13594 q -0.94812,8.722705 -4.99344,15.612378 -4.04531,6.889673 -11.44064,10.934985 -7.39534,3.982105 -18.45674,3.982105 -8.09063,0 -14.72747,-3.033985 -6.57363,-3.033984 -11.31423,-8.596289 -4.7406,-5.625512 -7.33213,-13.463305 -2.52832,-7.901001 -2.52832,-17.571826 v -9.165161 q 0,-9.6708246 2.52832,-17.5086174 2.59153,-7.9010006 7.39534,-13.5265136 4.86701,-5.625512 11.69348,-8.659497 6.82646,-3.033984 15.35954,-3.033984 10.42932,0 17.63504,3.918896 7.20571,3.918897 11.18781,10.871778 4.04532,6.8896722 4.99344,15.9916251 h -12.13594 q -0.88491,-6.4472166 -3.28682,-11.0614011 -2.4019,-4.677392 -6.82646,-7.205713 -4.42456,-2.52832 -11.56707,-2.52832 -6.13117,0 -10.80857,2.338696 -4.61418,2.338697 -7.77458,6.636841 -3.09719,4.2981444 -4.67739,10.30290499 -1.5802,6.00476061 -1.5802,13.33688901 v 9.291577 q 0,6.763257 1.39057,12.70481 1.45379,5.941552 4.36136,10.429321 2.90756,4.487768 7.39533,7.079296 4.48777,2.528321 10.61895,2.528321 7.77458,0 12.38877,-2.465113 4.61418,-2.465112 6.95288,-7.079296 2.4019,-4.614185 3.41323,-11.061402 z m 38.62008,-67.82219 v 97.087497 h -11.69349 v -97.087497 z m -2.78116,60.300438 -4.86701,-0.189624 q 0.0632,-7.016089 2.08586,-12.957642 2.02266,-6.0047602 5.68872,-10.4293206 3.66607,-4.42456049 8.72271,-6.8264647 5.11986,-2.4651123 11.31426,-2.4651123 5.0566,0 9.1019,1.3905762 4.0453,1.3273681 6.8897,4.2981444 2.9076,2.9707763 4.4246,7.7113768 1.5169,4.6773922 1.5169,11.4406492 v 44.814476 h -11.7566 V 19.861224 q 0,-5.372681 -1.5802,-8.596289 -1.5802,-3.2868163 -4.6142,-4.7406004 -3.034,-1.5169922 -7.4586,-1.5169922 -4.3613,0 -7.96418,1.8330322 -3.53965,1.8330322 -6.13118,5.0566404 -2.52832,3.223608 -3.9821,7.395337 -1.39058,4.10852 -1.39058,8.722705 z m 90.76674,38.05122 q -7.1425,0 -12.9577,-2.401905 -5.7519,-2.465112 -9.9236,-6.889672 -4.1085,-4.424561 -6.3208,-10.492529 -2.2123,-6.067969 -2.2123,-13.273682 v -2.654736 q 0,-8.343457 2.4651,-14.853882 2.4651,-6.5736322 6.7001,-11.1246087 4.2349,-4.55097641 9.6076,-6.8896726 5.3727,-2.3386963 11.1246,-2.3386963 7.3321,0 12.6416,2.5283203 5.3727,2.52832023 8.7859,7.0792967 3.4132,4.4877684 5.0566,10.6189446 1.6434,6.067969 1.6434,13.273682 v 5.246264 h -51.072 v -9.544409 h 39.3786 V 23.46408 q -0.2529,-4.550976 -1.8963,-8.849121 -1.5802,-4.298144 -5.0566,-7.0792963 -3.4765,-2.7811523 -9.4812,-2.7811523 -3.9821,0 -7.3321,1.7066162 -3.3501,1.6434081 -5.752,4.9302244 -2.4019,3.286816 -3.7292,8.027417 -1.3274,4.7406 -1.3274,10.934985 v 2.654736 q 0,4.867017 1.3274,9.165161 1.3905,4.234937 3.9821,7.458545 2.6547,3.223608 6.384,5.05664 3.7924,1.833033 8.5963,1.833033 6.1943,0 10.4925,-2.528321 4.2981,-2.52832 7.5217,-6.763256 l 7.0793,5.625512 q -2.2122,3.350025 -5.6255,6.384009 -3.4132,3.033984 -8.4066,4.930224 -4.9303,1.896241 -11.6935,1.896241 z m 67.6325,-9.607617 q 4.1718,0 7.7114,-1.706617 3.5397,-1.706616 5.8151,-4.677392 2.2755,-3.033984 2.5916,-6.889673 h 11.1246 q -0.3161,6.067969 -4.1085,11.314233 -3.7293,5.183057 -9.7973,8.406665 -6.0679,3.160401 -13.3369,3.160401 -7.7113,0 -13.4633,-2.717945 -5.6887,-2.717944 -9.4812,-7.458544 -3.7292,-4.740601 -5.6255,-10.871778 -1.833,-6.194384 -1.833,-13.084057 v -2.654736 q 0,-6.889673 1.833,-13.020849 1.8963,-6.194385 5.6255,-10.9349856 3.7925,-4.74060043 9.4812,-7.4585447 5.752,-2.7179443 13.4633,-2.7179443 8.0275,0 14.0322,3.2868164 6.0048,3.2236083 9.418,8.8491208 3.4764,5.5623044 3.7925,12.6416014 h -11.1246 q -0.3161,-4.234937 -2.4019,-7.648169 -2.0227,-3.4132322 -5.5623,-5.4358884 -3.4765,-2.0858642 -8.1539,-2.0858642 -5.3726,0 -9.0387,2.1490722 -3.6029,2.0858642 -5.7519,5.6887204 -2.0859,3.539649 -3.034,7.901001 -0.8849,4.298144 -0.8849,8.785913 v 2.654736 q 0,4.487769 0.8849,8.849121 0.8849,4.361352 2.9708,7.901001 2.149,3.539648 5.7519,5.68872 3.666,2.085865 9.1019,2.085865 z m 52.1466,-88.744041 v 97.087497 h -11.7567 v -97.087497 z m 41.7805,28.6964346 -29.8342,31.9200434 -16.6869,17.318993 -0.9481,-12.451977 11.9463,-14.285009 21.2379,-22.5020504 z m -10.6821,68.3910624 -24.3983,-32.615331 6.0679,-10.429321 32.1097,43.044652 z"
     id="path8" /><path
     style="font-weight:255;font-size:129.45px;font-family:Roboto;-inkscape-font-specification:'Roboto,  weight=255';opacity:0.965879;fill-rule:nonzero"
     d="m 659.09629,134.58376 h 3.85569 l 37.86159,87.03743 37.98801,-87.03743 h 3.79249 l -40.38992,92.03086 h -2.71795 z m -1.01133,0 h 3.41323 v 47.59563 44.43523 h -3.41323 z m 82.29682,0 h 3.41324 v 92.03086 h -3.41324 v -44.43523 z m 51.51453,93.29502 q -6.2576,0 -11.69348,-2.46511 -5.43589,-2.52832 -9.54441,-7.0793 -4.10852,-4.55098 -6.44722,-10.74536 -2.27549,-6.25759 -2.27549,-13.71614 v -2.78115 q 0,-7.52175 2.21228,-13.71614 2.27549,-6.25759 6.19439,-10.80857 3.9821,-4.61418 9.16516,-7.07929 5.18305,-2.52832 11.12461,-2.52832 5.68872,0 10.42932,2.14907 4.7406,2.08586 8.21704,5.94155 3.53965,3.85569 5.43589,9.22837 1.89624,5.37268 1.89624,11.8831 v 3.98211 h -52.46265 v -3.41323 h 49.04941 v -0.82171 q 0,-6.88967 -2.78115,-12.6416 -2.78115,-5.81514 -7.83779,-9.35478 -5.05664,-3.53965 -11.94631,-3.53965 -5.68872,0 -10.36612,2.4019 -4.61418,2.40191 -7.96421,6.63684 -3.35002,4.17173 -5.18305,9.73404 -1.76983,5.5623 -1.76983,11.94631 v 2.78115 q 0,6.38401 2.02266,11.94631 2.02266,5.56231 5.62551,9.79725 3.60286,4.17172 8.40667,6.57363 4.86701,2.33869 10.49253,2.33869 5.87834,0 10.93498,-1.95944 5.11985,-1.95945 9.35479,-7.45855 l 2.4019,1.70662 q -2.27549,3.22361 -5.4991,5.75193 -3.1604,2.46511 -7.45854,3.91889 -4.23494,1.39058 -9.73403,1.39058 z m 44.05597,-98.35166 v 97.0875 h -3.41324 v -97.0875 z m -0.56888,57.01362 -1.83303,-3.60285 q 0.63208,-5.05664 2.78115,-9.67083 2.14908,-4.67739 5.62552,-8.34346 3.47644,-3.66606 8.09062,-5.81513 4.61419,-2.14907 10.17649,-2.14907 5.18306,0 9.22837,1.45378 4.04531,1.39058 6.82646,4.48777 2.78116,3.03398 4.23494,7.83779 1.45378,4.80381 1.45378,11.63027 v 44.24561 h -3.41323 v -44.24561 q 0,-8.7227 -2.4019,-13.4633 -2.3387,-4.80381 -6.51043,-6.70005 -4.17172,-1.89624 -9.60761,-1.89624 -6.44722,0 -11.0614,2.90757 -4.55098,2.84436 -7.52176,7.1425 -2.90757,4.29815 -4.42456,8.72271 -1.45378,4.42456 -1.64341,7.45854 z m 71.42506,-16.43408 v 56.50796 h -3.41323 v -68.39106 h 3.41323 z m 27.11624,-12.45198 -0.37925,3.03399 q -1.01133,-0.12642 -2.14907,-0.25283 -1.07454,-0.12642 -2.27549,-0.12642 -5.75193,0 -10.11328,2.3387 -4.29815,2.33869 -7.20572,6.44721 -2.84436,4.10852 -4.29814,9.4812 -1.39058,5.30948 -1.39058,11.37744 l -2.27548,0.18963 q 0,-7.20571 1.51699,-13.27368 1.5802,-6.06797 4.67739,-10.49253 3.1604,-4.48777 7.901,-6.95288 4.80381,-2.46511 11.18782,-2.46511 1.5802,0 2.78115,0.18962 1.20095,0.18962 2.02266,0.50566 z m 22.31241,68.95994 h -3.41323 v -78.1251 q 0,-6.57363 2.14907,-11.0614 2.14907,-4.55098 6.13118,-6.88967 4.04531,-2.3387 9.60761,-2.3387 1.95945,0 4.04531,0.25283 2.08587,0.18963 4.04532,0.82171 l -0.50567,3.28681 q -1.76982,-0.50566 -3.35002,-0.69528 -1.5802,-0.25284 -4.17173,-0.25284 -4.48777,0 -7.77458,2.02266 -3.22361,1.95945 -4.99344,5.75193 -1.76982,3.72927 -1.76982,9.10195 z M 974.3146,158.22356 V 161.7 h -33.37383 v -3.47644 z m 57.0136,55.55983 v -35.33327 q 0,-5.68872 -2.4651,-9.73404 -2.4019,-4.04531 -7.0793,-6.19438 -4.6142,-2.14907 -11.3142,-2.14907 -6.1944,0 -11.18784,2.21228 -4.93022,2.14907 -7.83779,5.94155 -2.84436,3.79248 -2.84436,8.53308 l -3.41323,-0.12641 q 0,-3.98211 1.83303,-7.58497 1.89624,-3.60285 5.24626,-6.384 3.41324,-2.78116 8.02743,-4.36136 4.6774,-1.6434 10.1765,-1.6434 7.1425,0 12.5784,2.4019 5.4991,2.4019 8.5963,7.20571 3.0972,4.80381 3.0972,12.00952 v 34.25874 q 0,3.66607 0.4424,7.39534 0.5057,3.72927 1.3274,5.81514 v 0.56887 h -3.9189 q -0.6321,-2.46511 -0.9481,-5.94155 -0.3161,-3.53965 -0.3161,-6.88968 z m 1.517,-25.34641 0.1264,3.47644 h -17.8246 q -6.6369,0 -11.8831,1.32737 -5.2463,1.26416 -8.91236,3.60286 -3.66607,2.33869 -5.62551,5.5623 -1.95945,3.22361 -1.95945,7.14251 0,4.10852 2.21228,7.52175 2.27549,3.41323 6.25759,5.43589 3.9821,2.02265 9.16515,2.02265 7.2057,0 12.768,-2.33869 5.5623,-2.40191 9.418,-6.70005 3.8557,-4.29815 5.8784,-10.17649 l 1.517,3.1604 q -1.201,3.53965 -3.6029,7.01609 -2.3387,3.41323 -6.0048,6.25759 -3.666,2.78115 -8.6595,4.48777 -4.9302,1.64341 -11.3142,1.64341 -6.384,0 -11.1246,-2.3387 -4.7406,-2.4019 -7.33213,-6.57363 -2.59153,-4.23494 -2.59153,-9.67083 0,-4.55097 2.14908,-8.34345 2.14907,-3.85569 6.19438,-6.63684 4.10852,-2.84436 9.9869,-4.36136 5.8783,-1.51699 13.2736,-1.51699 z m 47.09,36.02857 q 5.3727,0 10.1765,-1.89624 4.867,-1.95945 8.0906,-6.06797 3.2868,-4.10852 3.6661,-10.61895 h 3.4132 q -0.316,6.95288 -3.8557,11.88311 -3.5396,4.93022 -9.1651,7.52175 -5.6255,2.59153 -12.3256,2.59153 -6.6368,0 -11.8831,-2.46511 -5.1831,-2.52832 -8.7859,-7.0793 -3.5397,-4.55098 -5.4359,-10.80857 -1.833,-6.25759 -1.833,-13.77934 v -2.65474 q 0,-7.52175 1.833,-13.77935 1.8962,-6.25759 5.4359,-10.80857 3.6028,-4.55097 8.7227,-7.01608 5.183,-2.52832 11.8199,-2.52832 6.6368,0 12.2623,2.71794 5.6888,2.65474 9.2916,7.96421 3.6029,5.30947 3.9189,13.14726 h -3.4132 q -0.3161,-6.82646 -3.4765,-11.31423 -3.0972,-4.55098 -8.0274,-6.82646 -4.9302,-2.27549 -10.5557,-2.27549 -6.2576,0 -10.8718,2.4019 -4.6142,2.3387 -7.6482,6.57363 -2.9707,4.23494 -4.4245,9.79725 -1.4538,5.5623 -1.4538,11.94631 v 2.65474 q 0,6.44721 1.4538,12.00952 1.4538,5.5623 4.4245,9.79724 3.034,4.17173 7.6482,6.57363 4.6774,2.3387 10.9982,2.3387 z m 45.889,-94.93843 v 97.0875 h -3.4132 v -97.0875 z m -0.5689,57.01362 -1.833,-3.60285 q 0.6321,-5.05664 2.7811,-9.67083 2.1491,-4.67739 5.6256,-8.34346 3.4764,-3.66606 8.0906,-5.81513 4.6142,-2.14907 10.1765,-2.14907 5.183,0 9.2283,1.45378 4.0453,1.39058 6.8265,4.48777 2.7812,3.03398 4.2349,7.83779 1.4538,4.80381 1.4538,11.63027 v 44.24561 h -3.4132 v -44.24561 q 0,-8.7227 -2.4019,-13.4633 -2.3387,-4.80381 -6.5104,-6.70005 -4.1718,-1.89624 -9.6077,-1.89624 -6.4472,0 -11.0614,2.90757 -4.5509,2.84436 -7.5217,7.1425 -2.9076,4.29815 -4.4246,8.72271 -1.4538,4.42456 -1.6434,7.45854 z m 110.9301,27.24265 v -35.33327 q 0,-5.68872 -2.4651,-9.73404 -2.4019,-4.04531 -7.0793,-6.19438 -4.6142,-2.14907 -11.3142,-2.14907 -6.1944,0 -11.1879,2.21228 -4.9302,2.14907 -7.8378,5.94155 -2.8443,3.79248 -2.8443,8.53308 l -3.4132,-0.12641 q 0,-3.98211 1.833,-7.58497 1.8962,-3.60285 5.2463,-6.384 3.4132,-2.78116 8.0274,-4.36136 4.6774,-1.6434 10.1765,-1.6434 7.1425,0 12.5784,2.4019 5.499,2.4019 8.5962,7.20571 3.0972,4.80381 3.0972,12.00952 v 34.25874 q 0,3.66607 0.4425,7.39534 0.5057,3.72927 1.3274,5.81514 v 0.56887 h -3.9189 q -0.6321,-2.46511 -0.9482,-5.94155 -0.316,-3.53965 -0.316,-6.88968 z m 1.517,-25.34641 0.1264,3.47644 h -17.8247 q -6.6368,0 -11.8831,1.32737 -5.2462,1.26416 -8.9123,3.60286 -3.666,2.33869 -5.6255,5.5623 -1.9594,3.22361 -1.9594,7.14251 0,4.10852 2.2122,7.52175 2.2755,3.41323 6.2576,5.43589 3.9821,2.02265 9.1652,2.02265 7.2057,0 12.768,-2.33869 5.5623,-2.40191 9.418,-6.70005 3.8557,-4.29815 5.8783,-10.17649 l 1.517,3.1604 q -1.2009,3.53965 -3.6028,7.01609 -2.3387,3.41323 -6.0048,6.25759 -3.666,2.78115 -8.6595,4.48777 -4.9302,1.64341 -11.3142,1.64341 -6.384,0 -11.1246,-2.3387 -4.7406,-2.4019 -7.3321,-6.57363 -2.5916,-4.23494 -2.5916,-9.67083 0,-4.55097 2.1491,-8.34345 2.1491,-3.85569 6.1944,-6.63684 4.1085,-2.84436 9.9868,-4.36136 5.8784,-1.51699 13.2737,-1.51699 z m 23.7662,-58.90986 h 3.4133 v 83.81382 13.27368 h -3.4133 z m 52.3995,62.19668 v 1.32737 q 0,7.83779 -1.7699,14.2218 -1.7066,6.38401 -4.9934,10.99819 -3.2868,4.61419 -8.0906,7.14251 -4.7406,2.46511 -10.8086,2.46511 -5.7519,0 -10.3661,-1.64341 -4.551,-1.64341 -7.901,-4.48777 -3.35,-2.90757 -5.4359,-6.57363 -2.0859,-3.72927 -2.9076,-7.77459 v -27.87473 q 1.1378,-4.8038 3.2869,-8.91233 2.2122,-4.10852 5.4991,-7.1425 3.2868,-3.09719 7.7113,-4.80381 4.4246,-1.70661 9.9869,-1.70661 6.068,0 10.8718,2.4019 4.8038,2.4019 8.0906,6.95288 3.35,4.48777 5.0566,10.93499 1.7699,6.384 1.7699,14.47463 z m -3.5397,1.32737 v -1.32737 q 0,-6.82647 -1.3906,-12.51519 -1.3273,-5.75193 -4.1085,-9.92365 -2.7179,-4.23494 -6.8897,-6.57364 -4.1717,-2.33869 -9.7972,-2.33869 -6.4472,0 -10.8086,2.14907 -4.3613,2.08586 -7.0793,5.43589 -2.7179,3.28681 -4.2349,7.01609 -1.4538,3.66606 -2.1491,6.82646 v 24.01904 q 1.1378,5.11985 4.1086,9.35479 3.0339,4.23494 8.0906,6.76326 5.0566,2.52832 12.1991,2.52832 5.6255,0 9.7341,-2.3387 4.1717,-2.3387 6.8896,-6.51042 2.718,-4.23494 4.0453,-9.98687 1.3906,-5.75193 1.3906,-12.57839 z m 30.7191,33.56345 h -3.4133 v -78.1251 q 0,-6.57363 2.1491,-11.0614 2.1491,-4.55098 6.1312,-6.88967 4.0453,-2.3387 9.6076,-2.3387 1.9595,0 4.0453,0.25283 2.0859,0.18963 4.0453,0.82171 l -0.5056,3.28681 q -1.7699,-0.50566 -3.3501,-0.69528 -1.5802,-0.25284 -4.1717,-0.25284 -4.4878,0 -7.7746,2.02266 -3.2236,1.95945 -4.9934,5.75193 -1.7698,3.72927 -1.7698,9.10195 z m 18.0775,-68.39106 V 161.7 h -33.3739 v -3.47644 z m 17.5086,11.8831 v 56.50796 h -3.4133 v -68.39106 h 3.4133 z m 27.1162,-12.45198 -0.3792,3.03399 q -1.0114,-0.12642 -2.1491,-0.25283 -1.0745,-0.12642 -2.2755,-0.12642 -5.7519,0 -10.1133,2.3387 -4.2981,2.33869 -7.2057,6.44721 -2.8443,4.10852 -4.2981,9.4812 -1.3906,5.30948 -1.3906,11.37744 l -2.2755,0.18963 q 0,-7.20571 1.517,-13.27368 1.5802,-6.06797 4.6774,-10.49253 3.1604,-4.48777 7.901,-6.95288 4.8038,-2.46511 11.1878,-2.46511 1.5802,0 2.7812,0.18962 1.2009,0.18962 2.0226,0.50566 z m 53.158,56.12871 v -35.33327 q 0,-5.68872 -2.4652,-9.73404 -2.4019,-4.04531 -7.0793,-6.19438 -4.6141,-2.14907 -11.3142,-2.14907 -6.1944,0 -11.1878,2.21228 -4.9302,2.14907 -7.8378,5.94155 -2.8444,3.79248 -2.8444,8.53308 l -3.4132,-0.12641 q 0,-3.98211 1.833,-7.58497 1.8963,-3.60285 5.2463,-6.384 3.4132,-2.78116 8.0274,-4.36136 4.6774,-1.6434 10.1765,-1.6434 7.1425,0 12.5784,2.4019 5.4991,2.4019 8.5963,7.20571 3.0972,4.80381 3.0972,12.00952 v 34.25874 q 0,3.66607 0.4424,7.39534 0.5057,3.72927 1.3274,5.81514 v 0.56887 h -3.9189 q -0.6321,-2.46511 -0.9481,-5.94155 -0.316,-3.53965 -0.316,-6.88968 z m 1.5169,-25.34641 0.1265,3.47644 h -17.8247 q -6.6368,0 -11.8831,1.32737 -5.2463,1.26416 -8.9123,3.60286 -3.6661,2.33869 -5.6255,5.5623 -1.9595,3.22361 -1.9595,7.14251 0,4.10852 2.2123,7.52175 2.2755,3.41323 6.2576,5.43589 3.9821,2.02265 9.1651,2.02265 7.2058,0 12.7681,-2.33869 5.5623,-2.40191 9.4179,-6.70005 3.8557,-4.29815 5.8784,-10.17649 l 1.517,3.1604 q -1.201,3.53965 -3.6029,7.01609 -2.3387,3.41323 -6.0047,6.25759 -3.6661,2.78115 -8.6595,4.48777 -4.9303,1.64341 -11.3143,1.64341 -6.384,0 -11.1246,-2.3387 -4.7406,-2.4019 -7.3321,-6.57363 -2.5915,-4.23494 -2.5915,-9.67083 0,-4.55097 2.149,-8.34345 2.1491,-3.85569 6.1944,-6.63684 4.1086,-2.84436 9.9869,-4.36136 5.8783,-1.51699 13.2737,-1.51699 z m 69.5921,-30.21342 h 3.4764 v 67.44294 q 0,8.7227 -3.0972,15.10671 -3.0972,6.44722 -8.9123,9.92366 -5.7519,3.47644 -13.8426,3.47644 -4.9934,0 -9.1651,-1.45379 -4.1085,-1.45378 -7.4586,-4.10852 -3.2868,-2.59152 -5.7519,-5.94155 l 2.4019,-2.27549 q 3.9821,4.99344 8.7227,7.71138 4.8038,2.71794 11.1246,2.71794 7.4586,0 12.452,-3.09719 4.9934,-3.09719 7.5218,-8.78591 2.5283,-5.62551 2.5283,-13.27368 v -52.39944 z m -48.923,34.82761 v -1.32737 q 0,-8.09063 1.7066,-14.47463 1.7698,-6.44722 5.0566,-10.93499 3.3501,-4.55098 8.1539,-6.95288 4.8038,-2.4019 10.8718,-2.4019 5.5623,0 9.9236,1.70661 4.4246,1.70662 7.7114,4.80381 3.2868,3.03398 5.4359,7.1425 2.149,4.10853 3.2868,8.91233 v 27.87473 q -0.8217,4.04532 -2.9076,7.77459 -2.0226,3.66606 -5.3727,6.57363 -3.2868,2.84436 -7.8377,4.48777 -4.551,1.64341 -10.3662,1.64341 -6.0679,0 -10.8717,-2.46511 -4.7406,-2.52832 -8.0275,-7.14251 -3.2868,-4.61418 -5.0566,-10.99819 -1.7066,-6.38401 -1.7066,-14.2218 z m 3.4764,-1.32737 v 1.32737 q 0,6.82646 1.3274,12.57839 1.3906,5.75193 4.1085,9.98687 2.7812,4.17172 6.9529,6.51042 4.1717,2.3387 9.734,2.3387 7.2057,0 12.1992,-2.52832 4.9934,-2.52832 7.9642,-6.76326 2.9708,-4.23494 4.1085,-9.35479 v -24.01904 q -0.6953,-3.1604 -2.1491,-6.82646 -1.4538,-3.72928 -4.1717,-7.01609 -2.7179,-3.35003 -7.0793,-5.43589 -4.2981,-2.14907 -10.7454,-2.14907 -5.6255,0 -9.8604,2.33869 -4.1717,2.3387 -6.9529,6.57364 -2.7179,4.17172 -4.1085,9.92365 -1.3274,5.68872 -1.3274,12.51519 z m 95.3177,36.15498 q -6.2576,0 -11.6935,-2.46511 -5.4359,-2.52832 -9.5444,-7.0793 -4.1085,-4.55098 -6.4472,-10.74536 -2.2755,-6.25759 -2.2755,-13.71614 v -2.78115 q 0,-7.52175 2.2123,-13.71614 2.2755,-6.25759 6.1944,-10.80857 3.9821,-4.61418 9.1651,-7.07929 5.1831,-2.52832 11.1247,-2.52832 5.6887,0 10.4293,2.14907 4.7406,2.08586 8.217,5.94155 3.5397,3.85569 5.4359,9.22837 1.8962,5.37268 1.8962,11.8831 v 3.98211 h -52.4626 v -3.41323 h 49.0494 v -0.82171 q 0,-6.88967 -2.7811,-12.6416 -2.7812,-5.81514 -7.8378,-9.35478 -5.0567,-3.53965 -11.9463,-3.53965 -5.6888,0 -10.3662,2.4019 -4.6141,2.40191 -7.9642,6.63684 -3.35,4.17173 -5.183,9.73404 -1.7698,5.5623 -1.7698,11.94631 v 2.78115 q 0,6.38401 2.0226,11.94631 2.0227,5.56231 5.6255,9.79725 3.6029,4.17172 8.4067,6.57363 4.867,2.33869 10.4925,2.33869 5.8784,0 10.935,-1.95944 5.1198,-1.95945 9.3548,-7.45855 l 2.4019,1.70662 q -2.2755,3.22361 -5.4991,5.75193 -3.1604,2.46511 -7.4586,3.91889 -4.2349,1.39058 -9.734,1.39058 z"
     id="path9" /></g></g>
</svg>
